<svg width="1212" height="240" viewBox="0 0 1212 240" fill="none" xmlns="http://www.w3.org/2000/svg">
  <path fill-rule="evenodd" clip-rule="evenodd" d="M11 229L95 12H145L229 229H171L120 95L69 229H11ZM73 188H167L120 74L73 188Z" fill="#1A1C20"/>
  <path d="M250 12H285V229H250V12Z" fill="#1A1C20"/>
  <path d="M393 2H367L384 35H401L393 2Z" fill="#1A1C20"/>
  <path fill-rule="evenodd" clip-rule="evenodd" d="M403 12H487C559 12 604 58 604 120C604 182 559 229 487 229H403V193H487C538 193 569 161 569 120C569 79 538 48 487 48H403V12Z" fill="#1A1C20"/>
  <path fill-rule="evenodd" clip-rule="evenodd" d="M703 12H871C875 12 878 15 878 19V67C878 71 875 74 871 74H730C695 74 670 93 670 120C670 148 695 167 730 167H863C867 167 870 170 870 174V222C870 226 867 229 863 229H703C652 229 616 183 616 120C616 57 652 12 703 12Z" fill="#1A1C20"/>
  <path d="M956 12H1017L1068 120L1017 229H956L1008 120L956 12Z" fill="#1A1C20"/>
  <path d="M1023 12H1084L1135 120L1084 229H1023L1075 120L1023 12Z" fill="#1A1C20"/>
  <path d="M1090 12H1151L1202 120L1151 229H1090L1142 120L1090 12Z" fill="#1A1C20"/>
</svg>
